{
  "accessors": [
    {
      "bufferView": 2,
      "componentType": 5126,
      "count": 188,
      "max": [
        1.0,
        -0.020556800067424774,
        0.5186570286750793
      ],
      "min": [
        -1.0,
        -0.15410000085830688,
        -0.5186570286750793
      ],
      "type": "VEC3"
    },
    {
      "bufferView": 2,
      "byteOffset": 2256,
      "componentType": 5126,
      "count": 188,
      "max": [
        1.0,
        1.0,
        1.0
      ],
      "min": [
        -1.0,
        -1.0,
        -1.0
      ],
      "type": "VEC3"
    },
    {
      "bufferView": 3,
      "componentType": 5126,
      "count": 188,
      "max": [
        0.5288680195808411,
        0.9999619722366333,
        0.9999840259552002,
        1.0
      ],
      "min": [
        -0.606702983379364,
        -0.9999750256538391,
        -1.0,
        1.0
      ],
      "type": "VEC4"
    },
    {
      "bufferView": 1,
      "componentType": 5126,
      "count": 188,
      "max": [
        0.9630950093269348,
        0.9625170230865479
      ],
      "min": [
        0.005575709976255894,
        0.00012902299931738526
      ],
      "type": "VEC2"
    },
    {
      "bufferView": 0,
      "componentType": 5125,
      "count": 456,
      "type": "SCALAR"
    },
    {
      "bufferView": 2,
      "byteOffset": 4512,
      "componentType": 5126,
      "count": 5651,
      "max": [
        -0.060235198587179184,
        0.1193310022354126,
        0.39688101410865784
      ],
      "min": [
        -0.1931840032339096,
        -0.01485340017825365,
        -0.38964200019836426
      ],
      "type": "VEC3"
    },
    {
      "bufferView": 2,
      "byteOffset": 72324,
      "componentType": 5126,
      "count": 5651,
      "max": [
        0.9998647570610046,
        0.9997978806495667,
        0.994339108467102
      ],
      "min": [
        -0.9997996687889099,
        -0.9993564486503601,
        -0.9939039945602417
      ],
      "type": "VEC3"
    },
    {
      "bufferView": 3,
      "byteOffset": 3008,
      "componentType": 5126,
      "count": 5651,
      "max": [
        1.0,
        0.9999589920043945,
        0.9948539733886719,
        1.0
      ],
      "min": [
        -0.9999679923057556,
        -0.9999210238456726,
        -0.9012529850006104,
        -1.0
      ],
      "type": "VEC4"
    },
    {
      "bufferView": 1,
      "byteOffset": 1504,
      "componentType": 5126,
      "count": 5651,
      "max": [
        0.9335950016975403,
        0.980991005897522
      ],
      "min": [
        0.021567000076174736,
        0.03824419900774956
      ],
      "type": "VEC2"
    },
    {
      "bufferView": 0,
      "byteOffset": 1824,
      "componentType": 5125,
      "count": 31374,
      "type": "SCALAR"
    },
    {
      "bufferView": 2,
      "byteOffset": 140136,
      "componentType": 5126,
      "count": 4156,
      "max": [
        0.6082289814949036,
        0.15410000085830688,
        0.4796769917011261
      ],
      "min": [
        -0.9832119941711426,
        -0.03992379829287529,
        -0.48442700505256653
      ],
      "type": "VEC3"
    },
    {
      "bufferView": 2,
      "byteOffset": 190008,
      "componentType": 5126,
      "count": 4156,
      "max": [
        1.0,
        1.0,
        1.0
      ],
      "min": [
        -1.0,
        -1.0,
        -1.0
      ],
      "type": "VEC3"
    },
    {
      "bufferView": 3,
      "byteOffset": 93424,
      "componentType": 5126,
      "count": 4156,
      "max": [
        1.0,
        0.999987006187439,
        1.0,
        1.0
      ],
      "min": [
        -1.0,
        -0.9999459981918335,
        -1.0,
        -1.0
      ],
      "type": "VEC4"
    },
    {
      "bufferView": 1,
      "byteOffset": 46712,
      "componentType": 5126,
      "count": 4156,
      "max": [
        0.8527960181236267,
        0.9959409832954407
      ],
      "min": [
        0.00390625,
        0.00390625
      ],
      "type": "VEC2"
    },
    {
      "bufferView": 0,
      "byteOffset": 127320,
      "componentType": 5125,
      "count": 20970,
      "type": "SCALAR"
    }
  ],
  "asset": {
    "extras": {
      "author": "ezraszigetti (https://sketchfab.com/ezraszigetti)",
      "license": "CC-BY-4.0 (http://creativecommons.org/licenses/by/4.0/)",
      "source": "https://sketchfab.com/3d-models/mousetrap-11d8cc060bf041f0b1324592ef6879c5",
      "title": "Mousetrap"
    },
    "generator": "Sketchfab-12.67.0",
    "version": "2.0"
  },
  "bufferViews": [
    {
      "buffer": 0,
      "byteLength": 211200,
      "name": "floatBufferViews",
      "target": 34963
    },
    {
      "buffer": 0,
      "byteLength": 79960,
      "byteOffset": 211200,
      "byteStride": 8,
      "name": "floatBufferViews",
      "target": 34962
    },
    {
      "buffer": 0,
      "byteLength": 239880,
      "byteOffset": 291160,
      "byteStride": 12,
      "name": "floatBufferViews",
      "target": 34962
    },
    {
      "buffer": 0,
      "byteLength": 159920,
      "byteOffset": 531040,
      "byteStride": 16,
      "name": "floatBufferViews",
      "target": 34962
    }
  ],
  "buffers": [
    {
      "byteLength": 690960,
      "uri": "scene.bin"
    }
  ],
  "images": [
    {
      "uri": "textures/hout_baseColor.jpeg"
    },
    {
      "uri": "textures/hout_metallicRoughness.png"
    },
    {
      "uri": "textures/hout_normal.png"
    },
    {
      "uri": "textures/ijzer_baseColor.jpeg"
    },
    {
      "uri": "textures/ijzer_metallicRoughness.png"
    },
    {
      "uri": "textures/ijzer_normal.png"
    },
    {
      "uri": "textures/koper_baseColor.jpeg"
    },
    {
      "uri": "textures/koper_metallicRoughness.png"
    },
    {
      "uri": "textures/koper_normal.png"
    }
  ],
  "materials": [
    {
      "doubleSided": true,
      "name": "hout",
      "normalTexture": {
        "index": 2
      },
      "occlusionTexture": {
        "index": 1
      },
      "pbrMetallicRoughness": {
        "baseColorTexture": {
          "index": 0
        },
        "metallicRoughnessTexture": {
          "index": 1
        }
      }
    },
    {
      "doubleSided": true,
      "name": "ijzer",
      "normalTexture": {
        "index": 5
      },
      "occlusionTexture": {
        "index": 4
      },
      "pbrMetallicRoughness": {
        "baseColorTexture": {
          "index": 3
        },
        "metallicRoughnessTexture": {
          "index": 4
        }
      }
    },
    {
      "doubleSided": true,
      "name": "koper",
      "normalTexture": {
        "index": 8
      },
      "occlusionTexture": {
        "index": 7
      },
      "pbrMetallicRoughness": {
        "baseColorTexture": {
          "index": 6
        },
        "metallicRoughnessTexture": {
          "index": 7
        }
      }
    }
  ],
  "meshes": [
    {
      "name": "defaultMaterial",
      "primitives": [
        {
          "attributes": {
            "NORMAL": 1,
            "POSITION": 0,
            "TANGENT": 2,
            "TEXCOORD_0": 3
          },
          "indices": 4,
          "material": 0,
          "mode": 4
        }
      ]
    },
    {
      "name": "defaultMaterial",
      "primitives": [
        {
          "attributes": {
            "NORMAL": 6,
            "POSITION": 5,
            "TANGENT": 7,
            "TEXCOORD_0": 8
          },
          "indices": 9,
          "material": 1,
          "mode": 4
        }
      ]
    },
    {
      "name": "defaultMaterial",
      "primitives": [
        {
          "attributes": {
            "NORMAL": 11,
            "POSITION": 10,
            "TANGENT": 12,
            "TEXCOORD_0": 13
          },
          "indices": 14,
          "material": 2,
          "mode": 4
        }
      ]
    }
  ],
  "nodes": [
    {
      "children": [
        1
      ],
      "matrix": [
        1.0,
        0.0,
        0.0,
        0.0,
        0.0,
        2.220446049250313e-16,
        -1.0,
        0.0,
        0.0,
        1.0,
        2.220446049250313e-16,
        0.0,
        0.0,
        0.0,
        0.0,
        1.0
      ],
      "name": "Sketchfab_model"
    },
    {
      "children": [
        2
      ],
      "matrix": [
        1.0,
        0.0,
        0.0,
        0.0,
        0.0,
        -4.371139006309477e-08,
        0.999999999999999,
        0.0,
        0.0,
        -0.999999999999999,
        -4.371139006309477e-08,
        0.0,
        0.0,
        0.0,
        0.0,
        1.0
      ],
      "name": "Collada visual scene group"
    },
    {
      "children": [
        3,
        4,
        5
      ],
      "name": "Layer_0"
    },
    {
      "mesh": 0,
      "name": "defaultMaterial"
    },
    {
      "mesh": 1,
      "name": "defaultMaterial"
    },
    {
      "mesh": 2,
      "name": "defaultMaterial"
    }
  ],
  "samplers": [
    {
      "magFilter": 9729,
      "minFilter": 9987,
      "wrapS": 10497,
      "wrapT": 10497
    }
  ],
  "scene": 0,
  "scenes": [
    {
      "name": "Sketchfab_Scene",
      "nodes": [
        0
      ]
    }
  ],
  "textures": [
    {
      "sampler": 0,
      "source": 0
    },
    {
      "sampler": 0,
      "source": 1
    },
    {
      "sampler": 0,
      "source": 2
    },
    {
      "sampler": 0,
      "source": 3
    },
    {
      "sampler": 0,
      "source": 4
    },
    {
      "sampler": 0,
      "source": 5
    },
    {
      "sampler": 0,
      "source": 6
    },
    {
      "sampler": 0,
      "source": 7
    },
    {
      "sampler": 0,
      "source": 8
    }
  ]
}
